HIERARCHY
ROOT Hips
{
	OFFSET 0.00000 0.00000 0.00000
	CHANNELS 6 Xposition Yposition Zposition Zrotation Yrotation Xrotation 
	JOINT LHipJoint
	{
		OFFSET 0 0 0
		CHANNELS 3 Zrotation Yrotation Xrotation
		JOINT LeftHip
		{
			OFFSET 1.23340 -1.80723 0.69510
			CHANNELS 3 Zrotation Yrotation Xrotation
			JOINT LeftKnee
			{
				OFFSET 2.50056 -6.87023 0.00000
				CHANNELS 3 Zrotation Yrotation Xrotation
				JOINT LeftAnkle
				{
					OFFSET 2.85931 -7.85591 0.00000
					CHANNELS 3 Zrotation Yrotation Xrotation
					JOINT LeftToe
					{
						OFFSET 0.21001 -0.57700 2.07823
						CHANNELS 3 Zrotation Yrotation Xrotation
						End Site
						{
							OFFSET 0.00000 -0.00000 1.08338
						}
					}
				}
			}
		}
	}
	JOINT RHipJoint
	{
		OFFSET 0 0 0
		CHANNELS 3 Zrotation Yrotation Xrotation
		JOINT RightHip
		{
			OFFSET -1.40842 -1.80723 0.69510
			CHANNELS 3 Zrotation Yrotation Xrotation
			JOINT RightKnee
			{
				OFFSET -2.54876 -7.00266 0.00000
				CHANNELS 3 Zrotation Yrotation Xrotation
				JOINT RightAnkle
				{
					OFFSET -2.74835 -7.55104 0.00000
					CHANNELS 3 Zrotation Yrotation Xrotation
					JOINT RightToe
					{
						OFFSET -0.22633 -0.62184 2.00890
						CHANNELS 3 Zrotation Yrotation Xrotation
						End Site
						{
							OFFSET -0.00000 -0.00000 1.05493
						}
					}
				}
			}
		}
	}
	JOINT lowerback
	{
		OFFSET 0 0 0
		CHANNELS 3 Zrotation Yrotation Xrotation
		JOINT Chest
		{
			OFFSET -0.02340 2.02740 -0.12728
			CHANNELS 3 Zrotation Yrotation Xrotation
			JOINT Chest2
			{
				OFFSET -0.00862 2.03614 -0.01188
				CHANNELS 3 Zrotation Yrotation Xrotation
				JOINT lowerneck
				{
					OFFSET 0 0 0
					CHANNELS 3 Zrotation Yrotation Xrotation
					JOINT Neck
					{
						OFFSET 0.03380 1.76650 0.27670
						CHANNELS 3 Zrotation Yrotation Xrotation
						JOINT Head
						{
							OFFSET -0.01114 1.80516 -0.21451
							CHANNELS 3 Zrotation Yrotation Xrotation
							End Site
							{
								OFFSET -0.00766 1.81942 -0.10287
							}
						}
					}
				}
				JOINT LeftCollar
				{
					OFFSET 0 0 0
					CHANNELS 3 Zrotation Yrotation Xrotation
					JOINT LeftShoulder
					{
						OFFSET 3.22358 1.39475 0.18630
CHANNELS 3 Zrotation Xrotation Yrotation
						JOINT LeftElbow
						{
OFFSET 0 -5.450770 0.000000
CHANNELS 3 Zrotation Xrotation Yrotation
							JOINT LeftWrist
							{
OFFSET 0 -3.054880 0.000000
CHANNELS 3 Zrotation Xrotation Yrotation
								JOINT lhand
								{
									OFFSET 0 0 0
CHANNELS 3 Zrotation Xrotation Yrotation
									JOINT LFingers
									{
OFFSET 0 -0.638820 0.000000
CHANNELS 3 Zrotation Xrotation Yrotation
										End Site
										{
OFFSET 0 -0.515030 0.000000
										}
									}
								}
								JOINT LThumb
								{
OFFSET 0 0.000000 0.000000
CHANNELS 3 Zrotation Xrotation Yrotation
									End Site
									{
OFFSET 0 -0.522900 0.522900
									}
								}
							}
						}
					}
				}
				JOINT RightCollar
				{
					OFFSET 0 0 0
					CHANNELS 3 Zrotation Yrotation Xrotation
					JOINT RightShoulder
					{
						OFFSET -3.57143 1.14055 0.30691
CHANNELS 3 Zrotation Xrotation Yrotation
						JOINT RightElbow
						{
OFFSET 0 -4.887020 -0.000000
CHANNELS 3 Zrotation Xrotation Yrotation
							JOINT RightWrist
							{
OFFSET 0 -3.226030 0.000000
CHANNELS 3 Zrotation Xrotation Yrotation
								JOINT rhand
								{
									OFFSET 0 0 0
CHANNELS 3 Zrotation Xrotation Yrotation
									JOINT RFingers
									{
OFFSET 0 -0.716290 0.000000
CHANNELS 3 Zrotation Xrotation Yrotation
										End Site
										{
OFFSET 0 -0.577490 0.000000
										}
									}
								}
								JOINT RThumb
								{
OFFSET 0 0.000000 0.000000
CHANNELS 3 Zrotation Xrotation Yrotation
									End Site
									{
OFFSET 0 -0.586310 0.586310
									}
								}
							}
						}
					}
				}
			}
		}
	}
}
MOTION
Frames: 7
Frame Time: 0.008333333333333333
-6.591579 18.191080 -15.374763 2.962615 -8.552830 10.955169 0.000000 0.000000 0.000000 -24.373905 5.440333 -21.392497 2.697682 10.188750 29.590184 1.538639 -4.367207 -22.440582 1.106016 -6.674450 -18.757139 0.000000 0.000000 0.000000 19.783534 -13.415341 -25.781171 -4.718946 -13.060091 39.593841 -2.322363 -7.417562 -32.176439 -0.040886 1.305540 -3.589828 -4.015604 -1.527151 -10.058770 -0.632950 -1.599692 -2.452334 1.398592 -0.822767 3.174039 -1.518090 -6.136593 -16.459828 0.503577 -8.295282 20.926531 -0.645918 -3.941567 9.396572 0.000000 0.000000 0.000000 10.441013 10.182815 -40.623314 18.920079 -29.319290 4.991683 10.317431 -8.366890 -24.997026 0.000000 0.000000 0.000000 -7.125000 0.000000 0.000000 -20.217953 54.174760 4.713668 0.000000 0.000000 0.000000 -12.778188 1.485910 37.349576 -17.609945 -27.654472 -4.366901 -20.916870 -3.804472 -9.305612 0.000000 0.000000 0.000000 7.125000 0.000000 0.000000 4.311791 20.044299 2.580055
-6.539719 18.181457 -15.358999 3.189104 -7.549614 10.695156 0.000000 0.000000 0.000000 -24.493145 5.180958 -20.892489 2.671658 10.143516 29.442597 1.470964 -4.600259 -21.891559 1.722132 -8.261681 -23.511659 0.000000 0.000000 0.000000 19.146078 -13.467982 -25.321067 -4.777665 -13.128850 39.852922 -2.286787 -7.354145 -31.930753 -0.039973 1.289195 -3.544968 -4.052317 -1.340912 -9.797768 -0.893443 -1.352006 -2.447048 1.186130 -0.696728 3.016229 -1.318035 -6.034794 -16.495715 0.437290 -8.196221 21.143973 -0.693225 -3.883314 9.465901 0.000000 0.000000 0.000000 10.630702 10.188405 -41.115200 18.908666 -29.304997 4.986095 9.523316 -8.326117 -26.343120 0.000000 0.000000 0.000000 -7.125000 0.000000 0.000000 -21.796338 55.280957 5.699550 0.000000 0.000000 0.000000 -12.458548 1.684725 37.676163 -18.028377 -28.193356 -4.562729 -20.969649 -4.009607 -9.332261 0.000000 0.000000 0.000000 7.125000 0.000000 0.000000 4.274439 20.012322 2.560567
-6.483203 18.168657 -15.352258 3.351632 -6.586742 11.121967 0.000000 0.000000 0.000000 -24.693153 4.925724 -21.315050 2.670026 10.140738 29.433606 1.444509 -5.765814 -21.571711 1.696611 -8.203235 -23.333090 0.000000 0.000000 0.000000 18.685187 -13.240327 -25.627663 -4.847542 -13.209975 40.159788 -2.237070 -7.176114 -31.533567 -0.025204 1.021792 -2.808783 -4.039537 -1.277357 -10.134727 -0.915208 -1.256679 -2.661862 1.164609 -0.645823 2.973138 -1.595834 -5.871180 -16.469485 0.378030 -7.883338 21.324910 -0.631230 -3.763802 9.531733 0.000000 0.000000 0.000000 10.453553 10.221576 -41.226815 18.826403 -29.202365 4.945864 9.103832 -8.196656 -26.468405 0.000000 0.000000 0.000000 -7.125000 0.000000 0.000000 -22.287888 55.315593 5.856295 0.000000 0.000000 0.000000 -12.656489 1.818308 38.591347 -18.480025 -28.766818 -4.778289 -21.047341 -4.454163 -9.195311 0.000000 0.000000 0.000000 7.125000 0.000000 0.000000 4.216594 20.152620 2.512461
-6.436348 18.157464 -15.348482 3.043081 -5.568625 11.301174 0.000000 0.000000 0.000000 -24.325556 4.768764 -21.515353 2.691524 10.178138 29.555527 1.436729 -6.757568 -21.455222 1.740132 -8.302269 -23.636048 0.000000 0.000000 0.000000 18.704853 -12.745142 -25.441367 -4.916107 -13.288651 40.458960 -2.209024 -7.143228 -31.346040 -0.014667 0.778172 -2.138747 -3.637555 -1.185721 -10.216600 -0.878145 -1.174336 -2.720445 0.987284 -0.601620 2.946768 -1.442395 -5.625589 -16.582026 0.127536 -7.520703 21.476207 -0.700271 -3.608072 9.584748 0.000000 0.000000 0.000000 10.509575 10.138149 -41.429999 18.733916 -29.086773 4.900849 8.231713 -8.307558 -26.380706 0.000000 0.000000 0.000000 -7.125000 0.000000 0.000000 -23.087839 55.067042 5.940576 0.000000 0.000000 0.000000 -12.610708 1.785676 39.258425 -18.946382 -29.351733 -5.004688 -20.619702 -4.519324 -9.126516 0.000000 0.000000 0.000000 7.125000 0.000000 0.000000 4.522275 20.254753 2.685291
-6.392162 18.140045 -15.345079 3.183343 -4.506116 11.216289 0.000000 0.000000 0.000000 -24.446976 4.862582 -21.622942 2.733463 10.250423 29.791699 1.447296 -7.903162 -21.525250 1.834864 -8.513251 -24.284227 0.000000 0.000000 0.000000 18.180588 -12.420447 -24.968480 -4.984246 -13.366023 40.754640 -2.190332 -6.978646 -31.139841 -0.007849 0.569776 -1.565641 -3.697370 -1.199639 -10.109461 -0.973801 -1.186104 -2.677479 0.921612 -0.607525 2.931995 -1.039800 -5.306712 -16.993685 -0.290180 -7.083284 21.808105 -0.870332 -3.412546 9.741353 0.000000 0.000000 0.000000 10.542053 10.031458 -41.665094 18.702764 -29.047667 4.885657 8.411127 -8.520818 -26.545334 0.000000 0.000000 0.000000 -7.125000 0.000000 0.000000 -23.017251 55.252445 6.026744 0.000000 0.000000 0.000000 -12.481374 1.593455 39.784199 -19.371966 -29.877872 -5.215020 -20.149615 -4.339690 -9.165143 0.000000 0.000000 0.000000 7.125000 0.000000 0.000000 4.859860 20.245226 2.888261
-6.349410 18.124334 -15.358638 2.857626 -3.417352 11.409335 0.000000 0.000000 0.000000 -24.064035 4.742243 -22.039656 2.773880 10.319673 30.018311 1.421597 -9.031279 -21.372053 1.740982 -8.303186 -23.639595 0.000000 0.000000 0.000000 18.255750 -11.825978 -24.826946 -5.058777 -13.449625 41.075797 -2.134654 -7.037147 -30.832851 -0.002531 0.292546 -0.803901 -3.224562 -1.148714 -9.946882 -0.979609 -1.175589 -2.780785 0.655842 -0.596583 2.725973 -0.769405 -5.023053 -17.222133 -0.480673 -6.713108 21.960201 -0.940240 -3.236774 9.818778 0.000000 0.000000 0.000000 10.585806 9.943279 -41.750320 18.669615 -29.006045 4.869603 8.934776 -8.375115 -26.563960 0.000000 0.000000 0.000000 -7.125000 0.000000 0.000000 -22.515370 55.370681 5.951802 0.000000 0.000000 0.000000 -12.321176 1.485857 40.599930 -19.863296 -30.476672 -5.462119 -20.434684 -5.059262 -9.297440 0.000000 0.000000 0.000000 7.125000 0.000000 0.000000 4.657089 20.086016 2.783425
-6.307457 18.113547 -15.361962 2.797713 -2.388588 11.371714 0.000000 0.000000 0.000000 -23.975941 4.591852 -22.075146 2.805531 10.373321 30.194329 1.392939 -9.964771 -21.228418 1.564566 -7.892858 -22.389320 0.000000 0.000000 0.000000 17.902458 -11.384874 -24.434185 -5.139908 -13.539684 41.423805 -2.129059 -6.620654 -30.564054 -0.001747 -0.257797 0.708393 -3.016910 -1.092454 -9.740589 -1.048842 -1.127249 -2.788183 0.477418 -0.570005 2.597798 -0.656787 -4.719573 -17.160438 -0.499716 -6.310455 21.854478 -0.907056 -3.043891 9.765127 0.000000 0.000000 0.000000 10.543647 9.763620 -41.058704 18.431186 -28.705778 4.754562 8.719994 -7.095867 -26.281351 0.000000 0.000000 0.000000 -7.125000 0.000000 0.000000 -22.547386 55.069321 5.792494 0.000000 0.000000 0.000000 -12.130879 1.357134 41.216722 -20.304880 -31.007865 -5.687552 -20.600887 -5.560075 -9.517251 0.000000 0.000000 0.000000 7.125000 0.000000 0.000000 4.540973 19.841576 2.738643
